# xmcd
#
# Track frame offsets:
#	150
#	22678
#	44259
#	68083
#	94665
#	113489
#	134550
#	157701
#	181500
#	200315
#	223715
#	249272
#	276709
#
# Disc length: 4058 seconds
#
# Revision: 0
# Processed by: cddbd v1.5.2PL0 Copyright (c) Steve Scherf et al.
# Submitted via: EZCDAudioConverter 8.0.2.1
#
DISCID=a50fd80d
DTITLE=Ngọc Anh - st. Phú Quang. Gửi Một Tình yêu
DYEAR=2003
DGENRE=
TTITLE0=Chiều đông Maxcơva
TTITLE1=Chiều không em
TTITLE2=Giọt nước mắt đầu tiên
TTITLE3=Gửi Một Tình yêu, Gửi Đôi Mắt
TTITLE4=Có một vài điều anh muốn nói với em
TTITLE5=Rock buồn
TTITLE6=Nỗi nhớ
TTITLE7=Romance 3
TTITLE8=Nói với anh
TTITLE9=Đêm ả đào
TTITLE10=Hà Nội ngày trở về
TTITLE11=Mơ về nơi xa lắm
TTITLE12=Tôi muốn mang hồ Gươm đi
EXTD=
EXTT0=
EXTT1=
EXTT2=
EXTT3=
EXTT4=
EXTT5=
EXTT6=
EXTT7=
EXTT8=
EXTT9=
EXTT10=
EXTT11=
EXTT12=
PLAYORDER=
